<svg width="116" height="139" viewBox="0 0 116 139" fill="none" xmlns="http://www.w3.org/2000/svg">
<path d="M62.099 1.54166C56.4223 3.5304 52.0358 6.98907 48.4234 12.35C44.897 17.4515 43.8649 21.2561 43.8649 28.5193C43.8649 35.3502 44.897 38.6359 48.7675 44.6021C52.2939 49.9631 57.9705 53.9405 64.6793 55.8428L69.5818 57.2263L64.3352 62.8466C53.584 74.4332 49.1975 82.2152 47.1333 93.2829L46.1872 98.0386L42.6608 98.1251C37.4142 98.2115 30.5334 101.757 23.6527 107.896C15.8258 114.9 11.1813 118.099 6.70875 119.742C1.72019 121.471 0 123.287 0 126.832C0 132.279 6.88077 136.516 15.7398 136.516C22.1905 136.516 27.7811 134.873 35.694 130.81C39.7365 128.734 43.7789 127.005 44.553 127.005C45.4131 127.005 49.1975 128.994 52.8959 131.328C62.8731 137.64 69.1518 139.37 80.6771 138.937C93.1485 138.419 98.3951 136.343 105.448 129.253C113.017 121.558 115.425 115.245 115.941 101.411C116.629 81.7828 111.383 68.3805 95.7288 50.2225C93.0625 47.1097 92.7184 46.245 93.5785 45.0345C102.438 32.4103 100.889 16.8463 89.7081 6.72966C82.6553 0.331131 71.56 -1.74408 62.099 1.54166ZM79.903 89.1325C80.9351 91.2077 81.3651 92.9371 80.9351 93.11C80.505 93.2829 77.4087 95.1852 73.9683 97.3469L67.8616 101.411L72.4201 104.264C78.8709 108.415 87.5578 112.479 88.59 111.873C89.106 111.614 89.45 110.663 89.45 109.885C89.5361 105.994 90.9122 106.426 95.7288 111.873L100.631 117.407L95.2127 120.606C92.2884 122.336 88.848 124.757 87.6438 125.881L85.3216 127.956L83.4294 124.757C81.5372 121.73 81.4511 121.558 82.9993 120.433C83.8594 119.828 84.9775 119.136 85.4936 118.964C86.7837 118.445 86.5257 118.358 79.989 114.986C76.8926 113.343 70.6139 109.539 66.0554 106.512C58.3145 101.411 56.1643 99.3356 58.5726 99.3356C59.6047 99.3356 76.2046 87.6626 76.9786 86.3656C77.7527 85.0686 77.9248 85.2415 79.903 89.1325Z" fill="#F8F9FA"/>
</svg>
