<svg width="225" height="122" viewBox="0 0 225 122" fill="none" xmlns="http://www.w3.org/2000/svg">
<g filter="url(#filter0_d_14_592)">
<rect x="16" y="8" width="192.692" height="89.3111" rx="40" fill="url(#paint0_linear_14_592)"/>
</g>
<path d="M62.5227 45.4545V60H60.7614V45.4545H62.5227ZM67.5032 53.4375V60H65.8271V49.0909H67.4464V50.7955H67.5884C67.8441 50.2415 68.2324 49.7964 68.7532 49.4602C69.274 49.1193 69.9464 48.9489 70.7702 48.9489C71.5089 48.9489 72.1552 49.1004 72.7092 49.4034C73.2631 49.7017 73.694 50.1562 74.0018 50.767C74.3095 51.3731 74.4634 52.1402 74.4634 53.0682V60H72.7873V53.1818C72.7873 52.3248 72.5647 51.6572 72.1197 51.179C71.6746 50.696 71.0638 50.4545 70.2873 50.4545C69.7522 50.4545 69.274 50.5705 68.8526 50.8026C68.436 51.0346 68.1069 51.3731 67.8654 51.8182C67.6239 52.2633 67.5032 52.803 67.5032 53.4375ZM77.5263 64.0909V49.0909H79.1456V50.8239H79.3445C79.4676 50.6345 79.638 50.393 79.8558 50.0994C80.0784 49.8011 80.3956 49.536 80.8075 49.304C81.2242 49.0672 81.7876 48.9489 82.4979 48.9489C83.4164 48.9489 84.2261 49.1785 84.9268 49.6378C85.6276 50.0971 86.1745 50.7481 86.5675 51.5909C86.9605 52.4337 87.157 53.428 87.157 54.5739C87.157 55.7292 86.9605 56.7306 86.5675 57.5781C86.1745 58.4209 85.63 59.0743 84.9339 59.5384C84.2379 59.9976 83.4354 60.2273 82.5263 60.2273C81.8255 60.2273 81.2644 60.1113 80.843 59.8793C80.4216 59.6425 80.0973 59.375 79.87 59.0767C79.6428 58.7737 79.4676 58.5227 79.3445 58.3239H79.2024V64.0909H77.5263ZM79.174 54.5455C79.174 55.3693 79.2947 56.0961 79.5362 56.7259C79.7777 57.3509 80.1304 57.8409 80.5945 58.196C81.0585 58.5464 81.6267 58.7216 82.299 58.7216C82.9998 58.7216 83.5845 58.5369 84.0533 58.1676C84.5268 57.7936 84.8819 57.2917 85.1186 56.6619C85.3601 56.0275 85.4808 55.322 85.4808 54.5455C85.4808 53.7784 85.3625 53.0871 85.1257 52.4716C84.8937 51.8513 84.541 51.3613 84.0675 51.0014C83.5987 50.6368 83.0092 50.4545 82.299 50.4545C81.6172 50.4545 81.0443 50.6274 80.5803 50.973C80.1162 51.3139 79.7659 51.7921 79.5291 52.4077C79.2924 53.0185 79.174 53.7311 79.174 54.5455ZM96.5888 55.5398V49.0909H98.2649V60H96.5888V58.1534H96.4751C96.2195 58.7074 95.8217 59.1785 95.282 59.5668C94.7422 59.9503 94.0604 60.142 93.2365 60.142C92.5547 60.142 91.9486 59.9929 91.4183 59.6946C90.888 59.3916 90.4714 58.937 90.1683 58.331C89.8653 57.7202 89.7138 56.9508 89.7138 56.0227V49.0909H91.3899V55.9091C91.3899 56.7045 91.6125 57.339 92.0575 57.8125C92.5073 58.286 93.0803 58.5227 93.7763 58.5227C94.1929 58.5227 94.6167 58.4162 95.0476 58.2031C95.4832 57.9901 95.8478 57.6634 96.1413 57.223C96.4396 56.7827 96.5888 56.2216 96.5888 55.5398ZM106.079 49.0909V50.5114H100.426V49.0909H106.079ZM102.074 46.4773H103.75V56.875C103.75 57.3485 103.818 57.7036 103.956 57.9403C104.098 58.1723 104.278 58.3286 104.495 58.4091C104.718 58.4848 104.952 58.5227 105.199 58.5227C105.383 58.5227 105.535 58.5133 105.653 58.4943C105.771 58.4706 105.866 58.4517 105.937 58.4375L106.278 59.9432C106.164 59.9858 106.006 60.0284 105.802 60.071C105.599 60.1184 105.341 60.142 105.028 60.142C104.555 60.142 104.091 60.0402 103.636 59.8366C103.186 59.633 102.812 59.3229 102.514 58.9062C102.22 58.4896 102.074 57.964 102.074 57.3295V46.4773ZM118.941 60H114.453V45.4545H119.14C120.551 45.4545 121.759 45.7457 122.762 46.3281C123.766 46.9058 124.536 47.7367 125.071 48.821C125.606 49.9006 125.873 51.1932 125.873 52.6989C125.873 54.214 125.603 55.5185 125.064 56.6122C124.524 57.7012 123.738 58.5393 122.706 59.1264C121.673 59.7088 120.419 60 118.941 60ZM116.214 58.4375H118.828C120.03 58.4375 121.027 58.2055 121.818 57.7415C122.609 57.2775 123.198 56.617 123.586 55.7599C123.975 54.9029 124.169 53.8826 124.169 52.6989C124.169 51.5246 123.977 50.5137 123.593 49.6662C123.21 48.8139 122.637 48.1605 121.875 47.706C121.112 47.2467 120.163 47.017 119.027 47.017H116.214V58.4375ZM131.811 60.2557C131.119 60.2557 130.492 60.1255 129.929 59.8651C129.365 59.5999 128.918 59.2188 128.586 58.7216C128.255 58.2197 128.089 57.6136 128.089 56.9034C128.089 56.2784 128.212 55.7718 128.458 55.3835C128.705 54.9905 129.034 54.6828 129.446 54.4602C129.858 54.2377 130.312 54.072 130.809 53.9631C131.311 53.8494 131.815 53.7595 132.322 53.6932C132.985 53.608 133.522 53.544 133.934 53.5014C134.351 53.4541 134.654 53.3759 134.843 53.267C135.038 53.1581 135.135 52.9687 135.135 52.6989V52.642C135.135 51.9413 134.943 51.3968 134.559 51.0085C134.181 50.6203 133.605 50.4261 132.833 50.4261C132.033 50.4261 131.406 50.6013 130.951 50.9517C130.497 51.3021 130.177 51.6761 129.993 52.0739L128.402 51.5057C128.686 50.8428 129.065 50.3267 129.538 49.9574C130.016 49.5833 130.537 49.3229 131.1 49.1761C131.669 49.0246 132.227 48.9489 132.777 48.9489C133.127 48.9489 133.529 48.9915 133.984 49.0767C134.443 49.1572 134.886 49.3253 135.312 49.581C135.743 49.8366 136.1 50.2225 136.385 50.7386C136.669 51.2547 136.811 51.946 136.811 52.8125V60H135.135V58.5227H135.049C134.936 58.7595 134.746 59.0128 134.481 59.2827C134.216 59.5526 133.863 59.7822 133.423 59.9716C132.983 60.161 132.445 60.2557 131.811 60.2557ZM132.066 58.75C132.729 58.75 133.288 58.6198 133.743 58.3594C134.202 58.099 134.547 57.7628 134.779 57.3509C135.016 56.9389 135.135 56.5057 135.135 56.0511V54.517C135.064 54.6023 134.907 54.6804 134.666 54.7514C134.429 54.8177 134.154 54.8769 133.842 54.929C133.534 54.9763 133.234 55.0189 132.94 55.0568C132.651 55.09 132.417 55.1184 132.237 55.142C131.801 55.1989 131.394 55.2912 131.015 55.419C130.641 55.5421 130.338 55.7292 130.106 55.9801C129.879 56.2263 129.765 56.5625 129.765 56.9886C129.765 57.571 129.981 58.0114 130.412 58.3097C130.847 58.6032 131.399 58.75 132.066 58.75ZM144.614 49.0909V50.5114H138.961V49.0909H144.614ZM140.609 46.4773H142.285V56.875C142.285 57.3485 142.353 57.7036 142.491 57.9403C142.633 58.1723 142.813 58.3286 143.031 58.4091C143.253 58.4848 143.487 58.5227 143.734 58.5227C143.918 58.5227 144.07 58.5133 144.188 58.4943C144.307 58.4706 144.401 58.4517 144.472 58.4375L144.813 59.9432C144.7 59.9858 144.541 60.0284 144.337 60.071C144.134 60.1184 143.876 60.142 143.563 60.142C143.09 60.142 142.626 60.0402 142.171 59.8366C141.721 59.633 141.347 59.3229 141.049 58.9062C140.755 58.4896 140.609 57.964 140.609 57.3295V46.4773ZM150.346 60.2557C149.655 60.2557 149.027 60.1255 148.464 59.8651C147.9 59.5999 147.453 59.2188 147.121 58.7216C146.79 58.2197 146.624 57.6136 146.624 56.9034C146.624 56.2784 146.747 55.7718 146.994 55.3835C147.24 54.9905 147.569 54.6828 147.981 54.4602C148.393 54.2377 148.847 54.072 149.344 53.9631C149.846 53.8494 150.351 53.7595 150.857 53.6932C151.52 53.608 152.058 53.544 152.469 53.5014C152.886 53.4541 153.189 53.3759 153.379 53.267C153.573 53.1581 153.67 52.9687 153.67 52.6989V52.642C153.67 51.9413 153.478 51.3968 153.094 51.0085C152.716 50.6203 152.14 50.4261 151.369 50.4261C150.568 50.4261 149.941 50.6013 149.487 50.9517C149.032 51.3021 148.712 51.6761 148.528 52.0739L146.937 51.5057C147.221 50.8428 147.6 50.3267 148.073 49.9574C148.551 49.5833 149.072 49.3229 149.636 49.1761C150.204 49.0246 150.763 48.9489 151.312 48.9489C151.662 48.9489 152.065 48.9915 152.519 49.0767C152.978 49.1572 153.421 49.3253 153.847 49.581C154.278 49.8366 154.636 50.2225 154.92 50.7386C155.204 51.2547 155.346 51.946 155.346 52.8125V60H153.67V58.5227H153.585C153.471 58.7595 153.281 59.0128 153.016 59.2827C152.751 59.5526 152.398 59.7822 151.958 59.9716C151.518 60.161 150.98 60.2557 150.346 60.2557ZM150.602 58.75C151.264 58.75 151.823 58.6198 152.278 58.3594C152.737 58.099 153.083 57.7628 153.315 57.3509C153.551 56.9389 153.67 56.5057 153.67 56.0511V54.517C153.599 54.6023 153.442 54.6804 153.201 54.7514C152.964 54.8177 152.69 54.8769 152.377 54.929C152.069 54.9763 151.769 55.0189 151.475 55.0568C151.186 55.09 150.952 55.1184 150.772 55.142C150.336 55.1989 149.929 55.2912 149.55 55.419C149.176 55.5421 148.873 55.7292 148.641 55.9801C148.414 56.2263 148.3 56.5625 148.3 56.9886C148.3 57.571 148.516 58.0114 148.947 58.3097C149.382 58.6032 149.934 58.75 150.602 58.75Z" fill="white"/>
<g clip-path="url(#clip0_14_592)">
<path d="M187.824 52.6554L184.991 55.4306C184.782 55.6354 184.782 55.9673 184.991 56.1721C185.2 56.3769 185.539 56.3769 185.748 56.1721L188.96 53.0261C189.169 52.8214 189.169 52.4894 188.96 52.2846L185.748 49.1386C185.539 48.9339 185.2 48.9339 184.991 49.1386C184.782 49.3434 184.782 49.6754 184.991 49.8801L187.824 52.6554Z" fill="white"/>
</g>
<defs>
<filter id="filter0_d_14_592" x="0" y="0" width="224.692" height="121.311" filterUnits="userSpaceOnUse" color-interpolation-filters="sRGB">
<feFlood flood-opacity="0" result="BackgroundImageFix"/>
<feColorMatrix in="SourceAlpha" type="matrix" values="0 0 0 0 0 0 0 0 0 0 0 0 0 0 0 0 0 0 127 0" result="hardAlpha"/>
<feOffset dy="8"/>
<feGaussianBlur stdDeviation="8"/>
<feColorMatrix type="matrix" values="0 0 0 0 0.105882 0 0 0 0 0.223529 0 0 0 0 1 0 0 0 0.2 0"/>
<feBlend mode="normal" in2="BackgroundImageFix" result="effect1_dropShadow_14_592"/>
<feBlend mode="normal" in="SourceGraphic" in2="effect1_dropShadow_14_592" result="shape"/>
</filter>
<linearGradient id="paint0_linear_14_592" x1="8.96522" y1="-65.8057" x2="221.76" y2="5.94295" gradientUnits="userSpaceOnUse">
<stop stop-color="#8693E7"/>
<stop offset="1" stop-color="#0077B6"/>
</linearGradient>
<clipPath id="clip0_14_592">
<rect width="4.28204" height="7.34064" fill="white" transform="translate(184.835 48.9851)"/>
</clipPath>
</defs>
</svg>
