<svg width="261" height="260" viewBox="0 0 261 260" fill="none" xmlns="http://www.w3.org/2000/svg">
<path d="M93.3579 27.2783C52.5433 27.2783 19.4583 60.3633 19.4583 101.178C19.4484 112.464 22.0279 123.602 26.9984 133.734C31.9689 143.867 39.1978 152.724 48.1288 159.624C43.2687 153.561 40.2208 146.253 39.3363 138.533C38.4519 130.814 39.7669 123.001 43.1299 115.996C46.4928 108.991 51.7667 103.079 58.3438 98.9409C64.9209 94.8031 72.5333 92.608 80.3038 92.6087H97.8321C106.495 92.6087 114.804 89.1672 120.93 83.0413C127.056 76.9154 130.497 68.6069 130.497 59.9435C130.497 51.2802 127.056 42.9717 120.93 36.8457C114.804 30.7198 106.495 27.2783 97.8321 27.2783H93.3579Z" fill="#0077B6" stroke="#0077B6" stroke-width="0.5" stroke-linecap="round" stroke-linejoin="round"/>
<path d="M167.642 27.2783C208.457 27.2783 241.542 60.3633 241.542 101.178C241.552 112.464 238.972 123.602 234.002 133.734C229.031 143.867 221.802 152.724 212.871 159.624C217.731 153.561 220.779 146.253 221.664 138.533C222.548 130.814 221.233 123.001 217.87 115.996C214.507 108.991 209.233 103.079 202.656 98.9409C196.079 94.8031 188.467 92.608 180.696 92.6087H163.168C154.505 92.6087 146.196 89.1672 140.07 83.0413C133.944 76.9154 130.503 68.6069 130.503 59.9435C130.503 51.2802 133.944 42.9717 140.07 36.8457C146.196 30.7198 154.505 27.2783 163.168 27.2783H167.642Z" fill="#0077B6" stroke="#0077B6" stroke-width="0.5" stroke-linecap="round" stroke-linejoin="round"/>
<path d="M48.1288 159.629L114.672 226.168C116.75 228.248 119.217 229.898 121.933 231.023C124.649 232.149 127.56 232.729 130.5 232.729C133.44 232.729 136.351 232.149 139.067 231.023C141.783 229.898 144.25 228.248 146.328 226.168L212.871 159.624" stroke="#0077B6" stroke-width="0.5" stroke-linecap="round" stroke-linejoin="round"/>
<path d="M57.7325 169.233C78.2617 189.768 111.558 189.768 132.093 169.233L161.548 139.777C171.62 129.701 177.278 116.037 177.278 101.79V92.6088" fill="#0077B6"/>
<path d="M57.7325 169.233C78.2617 189.768 111.558 189.768 132.093 169.233L161.548 139.777C171.62 129.701 177.278 116.037 177.278 101.79V92.6088" stroke="#0077B6" stroke-width="0.5" stroke-linecap="round" stroke-linejoin="round"/>
<path d="M133.154 168.171L104.76 139.777C94.686 129.702 89.026 116.038 89.0246 101.79V92.6088" fill="#0077B6"/>
<path d="M133.154 168.171L104.76 139.777C94.686 129.702 89.026 116.038 89.0246 101.79V92.6088" stroke="#0077B6" stroke-width="0.5" stroke-linecap="round" stroke-linejoin="round"/>
</svg>
