<svg width="259" height="259" viewBox="0 0 259 259" fill="none" xmlns="http://www.w3.org/2000/svg">
<path d="M137.594 125.453L133.547 61.7067C133.547 59.5601 132.694 57.5014 131.176 55.9836C129.658 54.4657 127.6 53.613 125.453 53.613C123.307 53.613 121.248 54.4657 119.73 55.9836C118.212 57.5014 117.359 59.5601 117.359 61.7067L113.596 121.139L89.2822 137.003C87.4232 138.077 86.0672 139.846 85.5124 141.92C84.9576 143.994 85.2495 146.204 86.3239 148.063C87.3983 149.922 89.1671 151.278 91.2413 151.833C93.3154 152.388 95.525 152.096 97.384 151.021L124.142 137.44C124.579 137.505 125.016 137.586 125.477 137.586C132.195 137.586 137.618 132.163 137.618 125.445L137.594 125.453ZM153.296 173.651C151.908 174.448 150.789 175.639 150.079 177.072C149.368 178.506 149.099 180.118 149.305 181.704C149.512 183.291 150.184 184.78 151.237 185.985C152.29 187.189 153.677 188.054 155.221 188.47C156.766 188.886 158.4 188.834 159.915 188.321C161.43 187.809 162.76 186.858 163.735 185.589C164.71 184.321 165.286 182.792 165.392 181.196C165.497 179.599 165.127 178.008 164.327 176.622C163.255 174.764 161.49 173.407 159.418 172.85C157.347 172.293 155.139 172.581 153.279 173.651H153.296ZM161.373 63.2364C159.511 62.1664 157.3 61.8798 155.227 62.4399C153.153 63 151.387 64.3609 150.317 66.223C149.247 68.0852 148.961 70.2962 149.521 72.3696C150.081 74.443 151.442 76.209 153.304 77.2791C155.167 78.3492 157.379 78.6352 159.453 78.0744C161.527 77.5135 163.294 76.1517 164.364 74.2884C165.434 72.4252 165.72 70.2132 165.159 68.139C164.598 66.0648 163.236 64.2984 161.373 63.2283V63.2364ZM176.63 164.344C177.551 164.874 178.568 165.218 179.623 165.355C180.677 165.492 181.748 165.421 182.775 165.144C183.801 164.868 184.764 164.391 185.606 163.743C186.449 163.095 187.156 162.287 187.686 161.365C188.216 160.444 188.56 159.427 188.697 158.372C188.835 157.318 188.763 156.247 188.487 155.22C188.21 154.193 187.734 153.231 187.085 152.389C186.437 151.546 185.629 150.839 184.707 150.309C182.846 149.238 180.636 148.95 178.563 149.508C176.489 150.067 174.723 151.426 173.651 153.287C172.58 155.149 172.292 157.359 172.851 159.432C173.409 161.506 174.769 163.272 176.63 164.344ZM184.724 100.589C185.645 100.057 186.452 99.3489 187.099 98.505C187.746 97.6611 188.221 96.6979 188.496 95.6705C188.771 94.6431 188.841 93.5716 188.702 92.5171C188.563 91.4627 188.218 90.4459 187.686 89.5249C187.154 88.6039 186.446 87.7967 185.602 87.1494C184.758 86.5021 183.795 86.0274 182.767 85.7523C181.74 85.4772 180.668 85.4072 179.614 85.5462C178.56 85.6853 177.543 86.0306 176.622 86.5626C174.762 87.6359 173.404 89.4041 172.848 91.4783C172.292 93.5525 172.582 95.7627 173.655 97.6227C174.729 99.4827 176.497 100.84 178.571 101.397C180.645 101.953 182.864 101.662 184.724 100.589ZM197.309 125.453C197.309 121.002 193.683 117.359 189.216 117.359C187.615 117.359 186.05 117.834 184.719 118.723C183.388 119.613 182.351 120.877 181.738 122.356C181.125 123.835 180.965 125.462 181.277 127.032C181.59 128.602 182.361 130.044 183.493 131.176C184.624 132.308 186.067 133.079 187.637 133.391C189.207 133.704 190.834 133.543 192.313 132.931C193.792 132.318 195.056 131.281 195.945 129.95C196.835 128.619 197.309 127.054 197.309 125.453ZM77.2629 97.6268C77.8485 96.7056 78.2418 95.6754 78.4189 94.5983C78.5961 93.5212 78.5536 92.4193 78.2938 91.3591C78.0341 90.2988 77.5627 89.3021 76.9077 88.4288C76.2528 87.5555 75.428 86.8236 74.483 86.2774C73.5379 85.7311 72.4921 85.3816 71.4085 85.25C70.3248 85.1184 69.2258 85.2073 68.1774 85.5114C67.129 85.8156 66.153 86.3286 65.3081 87.0198C64.4631 87.7109 63.7667 88.5658 63.2607 89.533C62.3157 91.3799 62.116 93.5191 62.7027 95.509C63.2894 97.4989 64.6179 99.1876 66.4138 100.226C68.2096 101.265 70.3358 101.574 72.3532 101.091C74.3706 100.607 76.1334 99.3669 77.2629 97.6268ZM53.613 125.453C53.6151 127.602 54.4708 129.662 55.9917 131.18C57.5126 132.697 59.5742 133.549 61.7229 133.547C63.8717 133.545 65.9316 132.689 67.4494 131.168C68.9673 129.647 69.8188 127.586 69.8167 125.437C69.8145 123.288 68.9589 121.228 67.438 119.71C65.9171 118.193 63.8555 117.341 61.7068 117.343C59.558 117.345 57.4981 118.201 55.9803 119.722C54.4624 121.243 53.6109 123.304 53.613 125.453ZM74.2925 164.344C76.4406 164.341 78.4998 163.486 80.0176 161.966C81.5354 160.446 82.3874 158.386 82.3863 156.238C82.3852 154.09 81.5312 152.03 80.0119 150.511C78.4926 148.993 76.4325 148.14 74.2844 148.14C72.1364 148.14 70.0763 148.993 68.557 150.511C67.0377 152.03 66.1837 154.09 66.1826 156.238C66.1815 158.386 67.0335 160.446 68.5513 161.966C70.069 163.486 72.1283 164.341 74.2763 164.344H74.2925ZM97.6187 77.2548C99.4776 76.1815 100.834 74.4137 101.39 72.3403C101.945 70.2669 101.654 68.0577 100.581 66.1987C99.7823 64.813 98.5906 63.6952 97.1565 62.9869C95.7225 62.2785 94.1105 62.0114 92.5247 62.2193C90.9388 62.4272 89.4502 63.1008 88.2472 64.1549C87.0441 65.2089 86.1808 66.5961 85.7663 68.1409C85.3517 69.6857 85.4047 71.3187 85.9184 72.8335C86.4322 74.3482 87.3836 75.6765 88.6524 76.6504C89.9212 77.6243 91.4503 78.2 93.0463 78.3047C94.6423 78.4094 96.2336 78.0384 97.6187 77.2386V77.2548ZM117.367 189.208C117.318 190.3 117.489 191.391 117.873 192.415C118.256 193.439 118.843 194.374 119.598 195.165C120.352 195.956 121.26 196.586 122.265 197.017C123.27 197.447 124.351 197.67 125.445 197.671C126.538 197.672 127.62 197.452 128.626 197.023C129.632 196.595 130.54 195.966 131.297 195.177C132.053 194.388 132.642 193.453 133.027 192.43C133.413 191.407 133.587 190.316 133.539 189.224C133.448 187.142 132.557 185.175 131.052 183.733C129.548 182.292 127.545 181.486 125.461 181.484C123.377 181.482 121.372 182.283 119.865 183.722C118.357 185.161 117.463 187.126 117.367 189.208ZM86.5627 176.622C84.3369 180.507 85.6723 185.444 89.525 187.67C90.9113 188.471 92.5042 188.843 94.1021 188.739C95.6999 188.635 97.231 188.059 98.5016 187.085C99.7721 186.11 100.725 184.781 101.24 183.264C101.755 181.748 101.808 180.113 101.393 178.566C100.978 177.02 100.114 175.631 98.9101 174.575C97.7058 173.52 96.2155 172.846 94.6278 172.637C93.0402 172.429 91.4264 172.697 89.9907 173.406C88.5551 174.115 87.3621 175.234 86.5627 176.622ZM232.072 114.017L205.606 104.417C207.953 113.369 208.924 122.831 208.115 132.584C204.124 178.216 164.004 211.967 118.339 208.115C96.4278 206.206 76.1687 195.684 62.007 178.856C47.8452 162.028 40.9376 140.27 42.7998 118.355C46.79 72.7061 86.8945 38.939 132.543 42.7997C151.393 44.4535 169.097 52.5511 182.676 65.7293L169.426 76.8744L226.326 97.4973L215.739 37.8949L201.413 49.9789C184.141 32.5773 160.969 20.8656 134.64 18.5994C75.6361 13.5327 23.6742 57.2551 18.5752 116.275C13.5166 175.278 57.239 227.24 116.234 232.339C175.262 237.39 227.224 193.675 232.315 134.672C232.914 127.663 232.776 120.767 232.072 114.033V114.017Z" fill="#0077B6"/>
</svg>
