<svg width="259" height="258" viewBox="0 0 259 258" fill="none" xmlns="http://www.w3.org/2000/svg">
<path d="M59.8077 42.2098C67.6122 58.7541 80.0016 53.449 96.2717 48.5255C159.75 29.3152 207.943 66.2146 212.56 113.724C220.122 110.472 229.276 116.922 228.927 124.06C228.577 131.198 222.477 137.487 212.56 135.262C212.64 151.258 193.591 168.85 226.916 182.078C216.419 188.523 206.825 197.219 190.452 188.969C168.017 214.446 137.132 222.966 99.142 209.362C59.8077 195.274 47.456 157.149 45.1609 130.381C37.9154 129.457 30.4172 125.598 30.0732 116.568C29.7292 107.548 39.286 101.797 47.456 108.693C48.316 95.1697 56.6472 82.7588 64.9785 70.3533C54.0135 60.5332 54.7714 51.2721 59.8077 42.2098Z" stroke="#0077B6" stroke-width="0.5" stroke-linecap="round" stroke-linejoin="round"/>
<path d="M79.0449 80.9797C106.957 84.0327 131.795 81.3291 150.538 67.1929C160.352 84.8551 170.156 90.1119 179.971 94.6215M167.625 142.298C174.72 140.857 175.435 145.56 174.8 148.329C164.169 194.742 101.566 191.28 88.951 154.359C87.2256 149.307 90.7462 146.216 96.2717 147.039C119.825 150.522 143.69 147.151 167.625 142.298Z" fill="#0077B6"/>
<path d="M79.0449 80.9797C106.957 84.0327 131.795 81.3291 150.538 67.1929C160.352 84.8551 170.156 90.1119 179.971 94.6215M167.625 142.298C174.72 140.857 175.435 145.56 174.8 148.329C164.169 194.742 101.566 191.28 88.951 154.359C87.2256 149.307 90.7462 146.216 96.2717 147.039C119.825 150.522 143.69 147.151 167.625 142.298Z" stroke="#0077B6" stroke-width="0.5" stroke-linecap="round" stroke-linejoin="round"/>
<path d="M94.4765 118.239C97.6469 118.239 100.217 115.669 100.217 112.499C100.217 109.328 97.6469 106.758 94.4765 106.758C91.3061 106.758 88.736 109.328 88.736 112.499C88.736 115.669 91.3061 118.239 94.4765 118.239Z" fill="#0077B6" stroke="#0077B6" stroke-width="0.5" stroke-linecap="round" stroke-linejoin="round"/>
<path d="M160.213 117.385C163.383 117.385 165.953 114.814 165.953 111.644C165.953 108.474 163.383 105.904 160.213 105.904C157.042 105.904 154.472 108.474 154.472 111.644C154.472 114.814 157.042 117.385 160.213 117.385Z" fill="#0077B6" stroke="#0077B6" stroke-width="0.5" stroke-linecap="round" stroke-linejoin="round"/>
<path d="M117.315 126.576C117.315 121.819 121.169 117.96 125.926 117.96C130.677 117.96 134.531 121.819 134.531 126.57L117.315 126.576Z" fill="#0077B6" stroke="#0077B6" stroke-width="0.5" stroke-linecap="round" stroke-linejoin="round"/>
</svg>
