<svg width="158" height="157" viewBox="0 0 158 157" fill="none" xmlns="http://www.w3.org/2000/svg">
<path fill-rule="evenodd" clip-rule="evenodd" d="M76.6532 156.583C61.2186 156.122 46.2674 151.094 33.6901 142.136C21.1129 133.177 11.4747 120.691 5.99406 106.254C0.513469 91.8183 -0.563347 76.0812 2.89999 61.0331C6.36332 45.9851 14.2112 32.302 25.4511 21.7141C36.691 11.1262 50.8182 4.10916 66.0461 1.55022C81.2741 -1.00872 96.9189 1.00538 111.002 7.33789C125.085 13.6704 136.975 24.0369 145.166 37.1264C153.358 50.216 157.484 65.4407 157.023 80.8752C156.405 101.572 147.59 121.176 132.518 135.374C117.445 149.572 97.3503 157.201 76.6532 156.583ZM34.2732 94.8219C32.6457 93.0751 31.7729 90.7569 31.8442 88.3705C31.9155 85.9841 32.9251 83.7221 34.6539 82.0756L39.3844 77.645C40.1892 76.88 41.1394 76.2845 42.1787 75.8938C43.2181 75.5032 44.3254 75.3253 45.4349 75.3708C46.5443 75.4164 47.6332 75.6843 48.6371 76.1588C49.6409 76.6333 50.5392 77.3047 51.2786 78.133L59.1431 86.7959C59.5179 87.2157 59.9743 87.5548 60.4844 87.7925C60.9946 88.0302 61.5478 88.1614 62.1103 88.1782C62.6729 88.195 63.2329 88.097 63.7564 87.8902C64.2798 87.6834 64.7555 87.3722 65.1546 86.9754L107.789 45.5758C108.582 44.7876 109.526 44.1679 110.565 43.754C111.604 43.3401 112.716 43.1406 113.834 43.1674C114.952 43.1942 116.053 43.4468 117.071 43.9101C118.089 44.3733 119.002 45.0377 119.757 45.8631L124.083 50.5069C125.67 52.2455 126.518 54.5333 126.448 56.8861C126.377 59.2389 125.394 61.472 123.707 63.1128L67.1292 117.273C66.3392 118.043 65.4035 118.648 64.3766 119.052C63.3498 119.456 62.2526 119.65 61.1495 119.625C60.0464 119.599 58.9596 119.353 57.9527 118.902C56.9458 118.451 56.0391 117.803 55.2858 116.997L34.2732 94.8219Z" fill="#2A9D8F"/>
</svg>
