<svg width="157" height="157" viewBox="0 0 157 157" fill="none" xmlns="http://www.w3.org/2000/svg">
<path d="M97.5539 78.0757L152.075 23.554C154.662 20.9714 156.117 17.466 156.12 13.8102C156.124 10.1534 154.675 6.64567 152.092 4.05877C149.509 1.47121 146.003 0.0152698 142.347 0.0122823C138.691 0.0092947 135.184 1.45826 132.596 4.04151L78.075 58.5626L23.554 4.04151C20.9664 1.45395 17.4567 0 13.7979 0C10.1375 0 6.62874 1.45395 4.04085 4.04151C1.45328 6.62874 0 10.1381 0 13.7979C0 17.4573 1.45328 20.9664 4.04085 23.554L58.5626 78.0757L4.04085 132.596C1.45328 135.184 0 138.693 0 142.353C0 146.012 1.45328 149.522 4.04085 152.109C6.62874 154.697 10.1375 156.15 13.7979 156.15C17.4567 156.15 20.9664 154.697 23.554 152.109L78.075 97.5881L132.596 152.109C135.184 154.697 138.693 156.15 142.353 156.15C146.012 156.15 149.521 154.697 152.109 152.109C154.696 149.522 156.15 146.012 156.15 142.353C156.15 138.693 154.696 135.184 152.109 132.596L97.5539 78.0757Z" fill="#E60E12"/>
</svg>
